<?xml version="1.0" encoding="iso-8859-1"?>
<!-- Generator: Adobe Illustrator 19.0.0, SVG Export Plug-In . SVG Version: 6.00 Build 0)  -->
<svg version="1.1" id="Layer_1" xmlns="http://www.w3.org/2000/svg" xmlns:xlink="http://www.w3.org/1999/xlink" x="0px" y="0px"
	 viewBox="0 0 512 512" style="enable-background:new 0 0 512 512;" xml:space="preserve">
<circle style="fill:#324A5E;" cx="256" cy="256" r="256"/>
<g>
	<path style="fill:#2B3B4E;" d="M500.226,332.945c5.289-16.806,8.885-34.359,10.604-52.464L296.226,65.879l-7.937,14.039
		l-29.253-28.87l-6.072,34.532L500.226,332.945z"/>
	<path style="fill:#2B3B4E;" d="M265.957,113.199l-1.245,4.953l-25.491-28.986l-6.637,5.446l29.36,31.303l-19.161,53.743l0,0
		l-43.672,215.774l110.851,110.851c86.488-18.56,156.763-80.793,186.589-162.502L265.957,113.199z"/>
</g>
<path style="fill:#E6F3FF;" d="M262.897,208.313c-1.208,0-2.41-0.505-3.263-1.491c-32.692-37.826-1.769-90.572-0.438-92.798
	c1.224-2.046,3.875-2.705,5.911-1.486c2.045,1.222,2.708,3.868,1.486,5.911c-0.391,0.659-28.984,49.707-0.438,82.737
	c1.555,1.801,1.358,4.522-0.443,6.078C264.899,207.967,263.895,208.313,262.897,208.313z"/>
<rect x="199.111" y="167.874" style="fill:#FC6F58;" width="113.778" height="227.556"/>
<rect x="256" y="167.874" style="fill:#F1543F;" width="56.889" height="227.556"/>
<g>
	<rect x="199.111" y="196.318" style="fill:#FFD15D;" width="113.778" height="28.444"/>
	<rect x="199.111" y="338.541" style="fill:#FFD15D;" width="113.778" height="28.444"/>
</g>
<g>
	<rect x="256" y="196.318" style="fill:#F9B54C;" width="56.889" height="28.444"/>
	<rect x="256" y="338.541" style="fill:#F9B54C;" width="56.889" height="28.444"/>
</g>
<g>
	<path style="fill:#F4E3C3;" d="M256,86.852c-2.381,0-4.31-1.929-4.31-4.31V54.098c0-2.381,1.929-4.31,4.31-4.31
		s4.31,1.929,4.31,4.31v28.444C260.31,84.923,258.381,86.852,256,86.852z"/>
	<path style="fill:#F4E3C3;" d="M236.118,96.487c-1.307,0-2.598-0.593-3.446-1.715l-17.118-22.718
		c-1.431-1.903-1.052-4.605,0.848-6.037c1.903-1.431,4.601-1.05,6.037,0.848l17.118,22.718c1.431,1.903,1.052,4.605-0.848,6.037
		C237.932,96.204,237.02,96.487,236.118,96.487z"/>
	<path style="fill:#F4E3C3;" d="M276.744,96.487c-0.902,0-1.814-0.283-2.591-0.867c-1.901-1.433-2.279-4.134-0.848-6.037
		l17.118-22.718c1.436-1.898,4.134-2.277,6.037-0.848c1.901,1.433,2.279,4.134,0.848,6.037L280.19,94.772
		C279.342,95.896,278.05,96.487,276.744,96.487z"/>
</g>
<g>
</g>
<g>
</g>
<g>
</g>
<g>
</g>
<g>
</g>
<g>
</g>
<g>
</g>
<g>
</g>
<g>
</g>
<g>
</g>
<g>
</g>
<g>
</g>
<g>
</g>
<g>
</g>
<g>
</g>
</svg>
