<?xml version="1.0" encoding="iso-8859-1"?>
<!-- Generator: Adobe Illustrator 19.0.0, SVG Export Plug-In . SVG Version: 6.00 Build 0)  -->
<svg version="1.1" id="Layer_1" xmlns="http://www.w3.org/2000/svg" xmlns:xlink="http://www.w3.org/1999/xlink" x="0px" y="0px"
	 viewBox="0 0 512.002 512.002" style="enable-background:new 0 0 512.002 512.002;" xml:space="preserve">
<circle style="fill:#273B7A;" cx="256" cy="256.001" r="256"/>
<g>
	<path style="fill:#121149;" d="M399.365,150.918l112.521,112.519c0.071-2.472,0.115-4.949,0.115-7.437
		c0-3.043-0.072-6.07-0.178-9.087L407.383,143.766L399.365,150.918z"/>
	<path style="fill:#121149;" d="M446.517,426.98L261.032,241.775l-15.555,13.371l-37.216-36.831l-7.394,7.825l36.843,36.24
		l-16.086,14.984l1.829,1.829L115.216,385.294l126.29,126.29c4.798,0.267,9.628,0.417,14.495,0.417
		C331.664,512.001,399.651,479.166,446.517,426.98z"/>
	<path style="fill:#121149;" d="M226.013,133.064l-7.687,7.544l37.591,37.464l9.095,9.095l3.001,3.001l-46.387,0.324
		l230.281,230.281c33.452-39.733,55.049-89.776,59.311-144.687L324.187,89.087l-0.598,38.665l-40.12-40.12l-7.511,7.489
		l47.945,47.945l0.752,36.669l9.968,9.968l-60.097,0.419l-6.234-6.234l4.222-4.222L226.013,133.064z"/>
</g>
<g>
	<circle style="fill:#FFFFFF;" cx="279.049" cy="90.721" r="5.387"/>
	<circle style="fill:#FFFFFF;" cx="392.826" cy="250.605" r="5.387"/>
	<circle style="fill:#FFFFFF;" cx="403.601" cy="147.602" r="5.387"/>
	<circle style="fill:#FFFFFF;" cx="222.16" cy="136.827" r="5.387"/>
	<circle style="fill:#FFFFFF;" cx="421.271" cy="289.824" r="5.387"/>
	<circle style="fill:#FFFFFF;" cx="289.823" cy="307.494" r="5.387"/>
	<circle style="fill:#FFFFFF;" cx="204.49" cy="222.161" r="5.387"/>
	<circle style="fill:#FFFFFF;" cx="375.156" cy="335.938" r="5.387"/>
</g>
<path style="fill:#FF7F4F;" d="M122.29,389.462c-2.205,0-4.413-0.841-6.094-2.526c-3.367-3.365-3.367-8.823,0-12.188
	l132.827-132.827c3.363-3.367,8.825-3.367,12.188,0c3.367,3.365,3.367,8.823,0,12.188L128.384,386.937
	C126.702,388.621,124.495,389.462,122.29,389.462z"/>
<path style="fill:#D35933;" d="M261.032,241.775L116.05,386.757c0.053,0.057,0.09,0.124,0.147,0.179
	c1.683,1.684,3.889,2.526,6.094,2.526c2.205,0,4.413-0.841,6.094-2.526L261.211,254.11c3.367-3.365,3.367-8.823,0-12.188
	C261.156,241.867,261.089,241.83,261.032,241.775z"/>
<path style="fill:#FFC61B;" d="M408.011,176.481h-64.291l22.571-22.571c4.711-4.713,4.711-12.354,0-17.067
	c-4.713-4.71-12.354-4.71-17.067,0l-22.571,22.571V95.123c0-4.761-3.858-8.62-8.62-8.62s-8.62,3.858-8.62,8.62v64.297
	l-19.946-19.946c-4.71-4.71-12.352-4.711-17.065,0.002c-4.711,4.711-4.711,12.352,0.002,17.065l19.942,19.942h-64.295
	c-4.761,0-8.62,3.858-8.62,8.62s3.858,8.62,8.62,8.62h64.293l-22.571,22.571c-4.711,4.713-4.711,12.354,0,17.067
	c2.357,2.355,5.446,3.534,8.533,3.534s6.177-1.179,8.533-3.534l22.573-22.573v64.291c0,4.761,3.858,8.62,8.62,8.62
	s8.62-3.858,8.62-8.62v-64.291l19.944,19.944c2.355,2.355,5.444,3.534,8.532,3.534s6.177-1.179,8.533-3.536
	c4.711-4.711,4.711-12.352-0.002-17.065l-19.944-19.944h64.295c4.761,0,8.62-3.858,8.62-8.62S412.772,176.481,408.011,176.481z"/>
<path style="fill:#EAA22F;" d="M408.011,176.481h-64.291l22.571-22.571c4.711-4.713,4.711-12.354,0-17.067
	c-0.055-0.055-0.116-0.1-0.171-0.153l-96.501,96.499c0.053,0.055,0.1,0.116,0.153,0.171c2.357,2.355,5.446,3.534,8.533,3.534
	s6.177-1.179,8.533-3.534l22.573-22.573v64.291c0,4.761,3.858,8.62,8.62,8.62s8.62-3.858,8.62-8.62v-64.291l19.944,19.944
	c2.355,2.355,5.444,3.534,8.532,3.534s6.177-1.179,8.533-3.536c4.711-4.711,4.711-12.352-0.002-17.065l-19.944-19.944h64.295
	c4.761,0,8.62-3.858,8.62-8.62S412.772,176.481,408.011,176.481z"/>
<g>
</g>
<g>
</g>
<g>
</g>
<g>
</g>
<g>
</g>
<g>
</g>
<g>
</g>
<g>
</g>
<g>
</g>
<g>
</g>
<g>
</g>
<g>
</g>
<g>
</g>
<g>
</g>
<g>
</g>
</svg>
